<svg height="70" width="70" xmlns="http://www.w3.org/2000/svg" viewBox="0 0 70 70"><path fill="#f63c3c" fill-rule="evenodd" d="M0 0h70v70H0V0z"/><path fill="#fff" fill-rule="evenodd" d="M44.7 30.19l-.74-4.3h-3.92l-.68 4.3h-2.68l3.3-18.59h3.89l3.54 18.59H44.7zm-2.79-16.28l-1.54 9.81h3.24l-1.7-9.81zm-13.69 38.6h-3.18c-1.84 0-2.77-.89-2.77-2.65V36.49c0-1.74.93-2.61 2.77-2.61h3.18c1.84 0 2.76.87 2.76 2.61v2.83h-2.7v-2.47c0-.36-.06-.59-.18-.7-.12-.11-.36-.16-.72-.16h-1.51c-.36 0-.59.05-.71.16s-.18.34-.18.7v12.68c0 .36.06.59.18.7.12.11.35.17.71.17h1.51c.36 0 .6-.06.72-.17.12-.11.18-.34.18-.7v-4.54h-1.49v-2.08h4.19v6.95c0 1.76-.92 2.65-2.76 2.65zm-.21-22.32h-2.88c-1.84 0-2.77-.87-2.77-2.61v-2.73h2.71v2.31c0 .36.06.59.18.7.12.11.35.17.71.17h1.25c.35 0 .59-.06.69-.17.11-.11.17-.34.17-.7v-4.54c0-.36-.06-.59-.17-.7-.1-.11-.34-.16-.69-.16h-2.2c-1.8 0-2.7-.88-2.7-2.65v-4.9c0-1.74.92-2.61 2.76-2.61h2.91c1.84 0 2.76.87 2.76 2.61v2.73h-2.7v-2.31c0-.36-.06-.59-.18-.7-.12-.11-.36-.16-.71-.16H25.9c-.36 0-.59.05-.71.16s-.18.34-.18.7v4.13c0 .35.06.59.18.69.12.11.35.17.71.17h2.17c1.82 0 2.73.87 2.73 2.61v5.35c0 1.74-.93 2.61-2.79 2.61zM46.2 57.84H22.44v-2.37H46.2v2.37zm.05-7.53v2.17h-8.08v-18.6h7.87v2.17h-5.17v5.73h4.28v2.17h-4.28v6.36h5.38z"/></svg>