<?xml version="1.0" encoding="utf-8"?>
<!-- Generator: Avocode 2.5.2 - http://avocode.com -->
<svg height="70" width="70" xmlns:xlink="http://www.w3.org/1999/xlink" xmlns="http://www.w3.org/2000/svg" viewBox="0 0 70 70">
    <path fill="#f63c3c" fill-rule="evenodd" d="M 0 0 C 0 0 70 0 70 0 C 70 0 70 70 70 70 C 70 70 0 70 0 70 C 0 70 0 0 0 0 Z" />
    <path fill="#ffffff" fill-rule="evenodd" d="M 44.7 30.19 C 44.7 30.19 43.96 25.89 43.96 25.89 C 43.96 25.89 40.04 25.89 40.04 25.89 C 40.04 25.89 39.36 30.19 39.36 30.19 C 39.36 30.19 36.68 30.19 36.68 30.19 C 36.68 30.19 39.98 11.6 39.98 11.6 C 39.98 11.6 43.87 11.6 43.87 11.6 C 43.87 11.6 47.41 30.19 47.41 30.19 C 47.41 30.19 44.7 30.19 44.7 30.19 Z M 41.91 13.91 C 41.91 13.91 40.37 23.72 40.37 23.72 C 40.37 23.72 43.61 23.72 43.61 23.72 C 43.61 23.72 41.91 13.91 41.91 13.91 Z M 28.22 52.51 C 28.22 52.51 25.04 52.51 25.04 52.51 C 23.2 52.51 22.27 51.62 22.27 49.86 C 22.27 49.86 22.27 36.49 22.27 36.49 C 22.27 34.75 23.2 33.88 25.04 33.88 C 25.04 33.88 28.22 33.88 28.22 33.88 C 30.06 33.88 30.98 34.75 30.98 36.49 C 30.98 36.49 30.98 39.32 30.98 39.32 C 30.98 39.32 28.28 39.32 28.28 39.32 C 28.28 39.32 28.28 36.85 28.28 36.85 C 28.28 36.49 28.22 36.26 28.1 36.15 C 27.98 36.04 27.74 35.99 27.38 35.99 C 27.38 35.99 25.87 35.99 25.87 35.99 C 25.51 35.99 25.28 36.04 25.16 36.15 C 25.04 36.26 24.98 36.49 24.98 36.85 C 24.98 36.85 24.98 49.53 24.98 49.53 C 24.98 49.89 25.04 50.12 25.16 50.23 C 25.28 50.34 25.51 50.4 25.87 50.4 C 25.87 50.4 27.38 50.4 27.38 50.4 C 27.74 50.4 27.98 50.34 28.1 50.23 C 28.22 50.12 28.28 49.89 28.28 49.53 C 28.28 49.53 28.28 44.99 28.28 44.99 C 28.28 44.99 26.79 44.99 26.79 44.99 C 26.79 44.99 26.79 42.91 26.79 42.91 C 26.79 42.91 30.98 42.91 30.98 42.91 C 30.98 42.91 30.98 49.86 30.98 49.86 C 30.98 51.62 30.06 52.51 28.22 52.51 Z M 28.01 30.19 C 28.01 30.19 25.13 30.19 25.13 30.19 C 23.29 30.19 22.36 29.32 22.36 27.58 C 22.36 27.58 22.36 24.85 22.36 24.85 C 22.36 24.85 25.07 24.85 25.07 24.85 C 25.07 24.85 25.07 27.16 25.07 27.16 C 25.07 27.52 25.13 27.75 25.25 27.86 C 25.37 27.97 25.6 28.03 25.96 28.03 C 25.96 28.03 27.21 28.03 27.21 28.03 C 27.56 28.03 27.8 27.97 27.9 27.86 C 28.01 27.75 28.07 27.52 28.07 27.16 C 28.07 27.16 28.07 22.62 28.07 22.62 C 28.07 22.26 28.01 22.03 27.9 21.92 C 27.8 21.81 27.56 21.76 27.21 21.76 C 27.21 21.76 25.01 21.76 25.01 21.76 C 23.21 21.76 22.31 20.88 22.31 19.11 C 22.31 19.11 22.31 14.21 22.31 14.21 C 22.31 12.47 23.23 11.6 25.07 11.6 C 25.07 11.6 27.98 11.6 27.98 11.6 C 29.82 11.6 30.74 12.47 30.74 14.21 C 30.74 14.21 30.74 16.94 30.74 16.94 C 30.74 16.94 28.04 16.94 28.04 16.94 C 28.04 16.94 28.04 14.63 28.04 14.63 C 28.04 14.27 27.98 14.04 27.86 13.93 C 27.74 13.82 27.5 13.77 27.15 13.77 C 27.15 13.77 25.9 13.77 25.9 13.77 C 25.54 13.77 25.31 13.82 25.19 13.93 C 25.07 14.04 25.01 14.27 25.01 14.63 C 25.01 14.63 25.01 18.76 25.01 18.76 C 25.01 19.11 25.07 19.35 25.19 19.45 C 25.31 19.56 25.54 19.62 25.9 19.62 C 25.9 19.62 28.07 19.62 28.07 19.62 C 29.89 19.62 30.8 20.49 30.8 22.23 C 30.8 22.23 30.8 27.58 30.8 27.58 C 30.8 29.32 29.87 30.19 28.01 30.19 Z M 46.2 57.84 C 46.2 57.84 22.44 57.84 22.44 57.84 C 22.44 57.84 22.44 55.47 22.44 55.47 C 22.44 55.47 46.2 55.47 46.2 55.47 C 46.2 55.47 46.2 57.84 46.2 57.84 Z M 46.25 50.31 C 46.25 50.31 46.25 52.48 46.25 52.48 C 46.25 52.48 38.17 52.48 38.17 52.48 C 38.17 52.48 38.17 33.88 38.17 33.88 C 38.17 33.88 46.04 33.88 46.04 33.88 C 46.04 33.88 46.04 36.05 46.04 36.05 C 46.04 36.05 40.87 36.05 40.87 36.05 C 40.87 36.05 40.87 41.78 40.87 41.78 C 40.87 41.78 45.15 41.78 45.15 41.78 C 45.15 41.78 45.15 43.95 45.15 43.95 C 45.15 43.95 40.87 43.95 40.87 43.95 C 40.87 43.95 40.87 50.31 40.87 50.31 C 40.87 50.31 46.25 50.31 46.25 50.31 Z" />
</svg>